<?xml version="1.0" standalone="no"?>
<!DOCTYPE svg PUBLIC "-//W3C//DTD SVG 20010904//EN"
 "http://www.w3.org/TR/2001/REC-SVG-20010904/DTD/svg10.dtd">
<svg version="1.0" xmlns="http://www.w3.org/2000/svg"
 width="260.000000pt" height="260.000000pt" viewBox="0 0 260.000000 260.000000"
 preserveAspectRatio="xMidYMid meet">
<metadata>
Created by potrace 1.11, written by Peter Selinger 2001-2013
</metadata>
<g transform="translate(0.000000,260.000000) scale(0.100000,-0.100000)"
fill="#000000" stroke="none">
<path d="M0 2398 l0 -203 153 -1 c107 -1 192 -7 288 -23 l136 -23 69 22 c322
102 672 -68 796 -387 26 -67 38 -83 140 -181 111 -108 235 -254 295 -347 30
-48 37 -52 106 -72 137 -41 253 -155 292 -287 34 -112 12 -264 -51 -359 l-25
-38 16 -92 c9 -51 19 -163 22 -249 l6 -158 178 0 179 0 0 1300 0 1300 -1300 0
-1300 0 0 -202z"/>
<path d="M698 1670 c-94 -18 -168 -111 -168 -211 0 -63 40 -139 92 -175 55
-39 155 -46 215 -16 135 69 162 239 56 346 -47 48 -124 70 -195 56z"/>
<path d="M1694 891 c-48 -29 -64 -59 -64 -119 0 -88 54 -142 142 -142 138 0
192 189 75 260 -42 26 -112 26 -153 1z"/>
</g>
</svg>
