<svg xmlns="http://www.w3.org/2000/svg" width="2299" height="1297" viewBox="0 0 2299 1297">
    <path fill="#6ECEB2" d="M179.06 292.73L75.61 396.01c-2.59 2.58-6.81 2.58-9.4-.01-2.58-2.59-2.58-6.81.01-9.4l103.45-103.28c2.59-2.58 6.81-2.58 9.4.01 2.58 2.58 2.58 6.81-.01 9.4zM145.71 762.63l-33.62 33.57c-2.59 2.58-6.81 2.58-9.4-.01-2.58-2.59-2.58-6.81.01-9.4l33.62-33.57c2.59-2.58 6.81-2.58 9.4.01 2.58 2.59 2.58 6.82-.01 9.4z"/>
    <circle fill="#6ECEB2" cx="83.33" cy="227.14" r="20"/>
    <circle fill="#6ECEB2" cx="263.07" cy="542.28" r="20"/>
    <path fill="#6ECEB2" d="M849.6 183.48l-33.62 33.57c-2.59 2.58-6.81 2.58-9.4-.01-2.58-2.59-2.58-6.81.01-9.4l33.62-33.57c2.59-2.58 6.81-2.58 9.4.01 2.58 2.59 2.58 6.81-.01 9.4z"/>
    <circle fill="#6ECEB2" cx="678.64" cy="1073.62" r="20"/>
    <circle fill="#6ECEB2" cx="1489.44" cy="85.28" r="20"/>
    <circle fill="#6ECEB2" cx="54.17" cy="1044.61" r="6.5"/>
    <circle fill="#6ECEB2" cx="995.89" cy="147.38" r="6.5"/>
    <path fill="#6ECEB2" d="M2154.82 634.26l-33.62 33.57c-2.59 2.58-6.81 2.58-9.4-.01-2.58-2.59-2.58-6.81.01-9.4l33.62-33.57c2.59-2.58 6.81-2.58 9.4.01 2.58 2.59 2.57 6.82-.01 9.4zM2128.71 49.51l-33.62 33.57c-2.59 2.58-6.81 2.58-9.4-.01-2.58-2.59-2.58-6.81.01-9.4l33.62-33.57c2.59-2.58 6.81-2.58 9.4.01 2.58 2.59 2.58 6.82-.01 9.4zM2254.77 288.82l-53.57 53.49c-2.59 2.58-6.81 2.58-9.4-.01-2.58-2.59-2.58-6.81.01-9.4l53.57-53.49c2.59-2.58 6.81-2.58 9.4.01 2.58 2.59 2.57 6.82-.01 9.4z"/>
    <circle fill="#6ECEB2" cx="2069.39" cy="146.75" r="20"/>
    <circle fill="#6ECEB2" cx="2055.59" cy="525.24" r="6.5"/>
    <circle fill="#6ECEB2" cx="2267.46" cy="678.41" r="6.5"/>
    <path fill="#6ECEB2" d="M1823.18 139.06l-103.45 103.28c-2.59 2.58-6.81 2.58-9.4-.01-2.58-2.59-2.58-6.81.01-9.4l103.45-103.28c2.59-2.58 6.81-2.58 9.4.01 2.58 2.59 2.58 6.82-.01 9.4zM1699.46 1074.89l-33.62 33.57c-2.59 2.58-6.81 2.58-9.4-.01-2.58-2.59-2.58-6.81.01-9.4l33.62-33.57c2.59-2.58 6.81-2.58 9.4.01 2.58 2.59 2.58 6.82-.01 9.4zM1736.7 67.2l-33.62 33.57c-2.59 2.58-6.81 2.58-9.4-.01-2.58-2.59-2.58-6.81.01-9.4l33.62-33.57c2.59-2.58 6.81-2.58 9.4.01 2.58 2.58 2.57 6.81-.01 9.4z"/>
    <circle fill="#6ECEB2" cx="1650.52" cy="1221.41" r="20"/>
    <circle fill="#6ECEB2" cx="1299.37" cy="177.12" r="20"/>
    <circle fill="#6ECEB2" cx="1578.77" cy="298.85" r="6.5"/>
    <path fill="#6ECEB2" d="M399.78 642.9L296.33 746.19c-2.59 2.58-6.81 2.58-9.4-.01-2.58-2.59-2.58-6.81.01-9.4L390.39 633.5c2.59-2.58 6.81-2.58 9.4.01 2.58 2.58 2.57 6.81-.01 9.39zM223.59 913.7l-33.62 33.57c-2.59 2.58-6.81 2.58-9.4-.01-2.58-2.59-2.58-6.81.01-9.4l33.62-33.57c2.59-2.58 6.81-2.58 9.4.01 2.58 2.59 2.58 6.81-.01 9.4zM454.38 458.16l-33.62 33.57c-2.59 2.58-6.81 2.58-9.4-.01-2.58-2.59-2.58-6.81.01-9.4l33.62-33.57c2.59-2.58 6.81-2.58 9.4.01 2.58 2.58 2.58 6.81-.01 9.4z"/>
    <circle fill="#6ECEB2" cx="847.51" cy="1238.76" r="20"/>
    <circle fill="#6ECEB2" cx="443.05" cy="571.43" r="20"/>
    <circle fill="#6ECEB2" cx="1875.28" cy="284.59" r="20"/>
    <circle fill="#6ECEB2" cx="1945.97" cy="671.65" r="20"/>
    <circle fill="#6ECEB2" cx="429.24" cy="949.92" r="6.5"/>
    <circle fill="#6ECEB2" cx="600.67" cy="422.06" r="6.5"/>
    <path fill="#6ECEB2" d="M2164.51 976.34l-103.45 103.28c-2.59 2.58-6.81 2.58-9.4-.01-2.58-2.59-2.58-6.81.01-9.4l103.45-103.28c2.59-2.58 6.81-2.58 9.4.01 2.58 2.59 2.57 6.81-.01 9.4zM1915.35 1207.07l-33.62 33.57c-2.59 2.58-6.81 2.58-9.4-.01-2.58-2.59-2.58-6.81.01-9.4l33.62-33.57c2.59-2.58 6.81-2.58 9.4.01 2.58 2.59 2.58 6.82-.01 9.4z"/>
    <circle fill="#6ECEB2" cx="1996.75" cy="936.69" r="20"/>
    <circle fill="#6ECEB2" cx="2200.53" cy="1209.85" r="20"/>
    <circle fill="#6ECEB2" cx="1773.25" cy="936.01" r="6.5"/>
    <circle fill="#6ECEB2" cx="1992.67" cy="424.18" r="6.5"/>
    <path fill="#6ECEB2" d="M438.48 1005.94l-103.45 103.28c-2.59 2.58-6.81 2.58-9.4-.01-2.58-2.59-2.58-6.81.01-9.4l103.45-103.28c2.59-2.58 6.81-2.58 9.4.01 2.58 2.59 2.58 6.81-.01 9.4zM969.34 1216.3l-33.62 33.57c-2.59 2.58-6.81 2.58-9.4-.01-2.58-2.59-2.58-6.81.01-9.4l33.62-33.57c2.59-2.58 6.81-2.58 9.4.01 2.58 2.59 2.58 6.82-.01 9.4zM1428.58 205.95l-33.62 33.57c-2.59 2.58-6.81 2.58-9.4-.01-2.58-2.59-2.58-6.81.01-9.4l33.62-33.57c2.59-2.58 6.81-2.58 9.4.01 2.58 2.58 2.58 6.81-.01 9.4zM1397.13 1073.13l-53.57 53.49c-2.59 2.58-6.81 2.58-9.4-.01-2.58-2.59-2.58-6.81.01-9.4l53.57-53.49c2.59-2.58 6.81-2.58 9.4.01 2.58 2.59 2.58 6.81-.01 9.4zM454.88 145.36l-53.57 53.49c-2.59 2.58-6.81 2.58-9.4-.01-2.58-2.59-2.58-6.81.01-9.4l53.57-53.49c2.59-2.58 6.81-2.58 9.4.01 2.58 2.59 2.58 6.82-.01 9.4zM603.61 180.28l-33.62 33.57c-2.59 2.58-6.81 2.58-9.4-.01-2.58-2.59-2.58-6.81.01-9.4l33.62-33.57c2.59-2.58 6.81-2.58 9.4.01 2.58 2.59 2.57 6.81-.01 9.4z"/>
    <circle fill="#6ECEB2" cx="474.51" cy="1239.45" r="20"/>
    <circle fill="#6ECEB2" cx="1222.04" cy="1198.56" r="6.5"/>
    <circle fill="#6ECEB2" cx="35.48" cy="45.1" r="20"/>
    <circle fill="#6ECEB2" cx="157.97" cy="53.7" r="6.5"/>
    <path fill="#6ECEB2" d="M838.47 1064.19l-33.62 33.57c-2.59 2.58-6.81 2.58-9.4-.01-2.58-2.59-2.58-6.81.01-9.4l33.62-33.57c2.59-2.58 6.81-2.58 9.4.01 2.58 2.59 2.57 6.82-.01 9.4z"/>
    <circle fill="#6ECEB2" cx="1505.09" cy="1138.79" r="6.5"/>
    <circle fill="#6ECEB2" cx="993.46" cy="62.87" r="20"/>
    <path fill="#6ECEB2" d="M518.71 53.21l-33.62 33.57c-2.59 2.58-6.81 2.58-9.4-.01-2.58-2.59-2.58-6.81.01-9.4l33.62-33.57c2.59-2.58 6.81-2.58 9.4.01 2.58 2.59 2.57 6.82-.01 9.4z"/>
    <g>
        <path fill="#272361" d="M190.63 145.94l-33.62 33.57c-2.59 2.58-6.81 2.58-9.4-.01-2.58-2.59-2.58-6.81.01-9.4l33.62-33.57c2.59-2.58 6.81-2.58 9.4.01 2.58 2.59 2.58 6.82-.01 9.4zM316.69 385.25l-53.57 53.49c-2.59 2.58-6.81 2.58-9.4-.01-2.58-2.59-2.58-6.81.01-9.4l53.57-53.49c2.59-2.58 6.81-2.58 9.4.01 2.58 2.59 2.57 6.82-.01 9.4z"/>
        <circle fill="#272361" cx="284.69" cy="1013.3" r="20"/>
        <circle fill="#272361" cx="117.51" cy="621.66" r="6.5"/>
        <circle fill="#272361" cx="329.38" cy="774.84" r="6.5"/>
        <circle fill="#272361" cx="336.92" cy="109.84" r="6.5"/>
        <path fill="#272361" d="M1149.21 103.51l-103.45 103.28c-2.59 2.58-6.81 2.58-9.4-.01-2.58-2.59-2.58-6.81.01-9.4L1139.82 94.1c2.59-2.58 6.81-2.58 9.4.01 2.58 2.59 2.58 6.82-.01 9.4zM153.39 1153.64l-33.62 33.57c-2.59 2.58-6.81 2.58-9.4-.01-2.58-2.59-2.58-6.81.01-9.4l33.62-33.57c2.59-2.58 6.81-2.58 9.4.01 2.58 2.59 2.58 6.82-.01 9.4zM1330.95 57.07l-53.57 53.49c-2.59 2.58-6.81 2.58-9.4-.01-2.58-2.59-2.58-6.81.01-9.4l53.57-53.49c2.59-2.58 6.81-2.58 9.4.01 2.58 2.59 2.58 6.82-.01 9.4z"/>
        <circle fill="#272361" cx="790.29" cy="280.71" r="20"/>
        <circle fill="#272361" cx="266.04" cy="1197.79" r="6.5"/>
        <path fill="#272361" d="M2258.17 153.41l-103.45 103.28c-2.59 2.58-6.81 2.58-9.4-.01-2.58-2.59-2.58-6.81.01-9.4L2248.78 144c2.59-2.58 6.81-2.58 9.4.01 2.58 2.59 2.58 6.82-.01 9.4z"/>
        <circle fill="#272361" cx="2207.87" cy="790.86" r="20"/>
        <circle fill="#272361" cx="2201.15" cy="445.85" r="20"/>
        <circle fill="#272361" cx="2275" cy="13.41" r="6.5"/>
        <path fill="#272361" d="M1925.89 135.56l-53.57 53.49c-2.59 2.58-6.81 2.58-9.4-.01-2.58-2.59-2.58-6.81.01-9.4l53.57-53.49c2.59-2.58 6.81-2.58 9.4.01 2.58 2.58 2.58 6.81-.01 9.4z"/>
        <circle fill="#272361" cx="1677.37" cy="180.43" r="20"/>
        <circle fill="#272361" cx="1600.23" cy="965.87" r="6.5"/>
        <circle fill="#272361" cx="1812.11" cy="1119.04" r="6.5"/>
        <path fill="#272361" d="M474.34 815.38l-53.57 53.49c-2.59 2.58-6.81 2.58-9.4-.01-2.58-2.59-2.58-6.81.01-9.4l53.57-53.49c2.59-2.58 6.81-2.58 9.4.01 2.58 2.59 2.57 6.82-.01 9.4zM101.59 508.08l-53.57 53.49c-2.59 2.58-6.81 2.58-9.4-.01-2.58-2.59-2.58-6.81.01-9.4l53.57-53.49c2.59-2.58 6.81-2.58 9.4.01 2.58 2.59 2.57 6.81-.01 9.4zM1971.01 350.18l-103.45 103.28c-2.59 2.58-6.81 2.58-9.4-.01-2.58-2.59-2.58-6.81.01-9.4l103.45-103.28c2.59-2.58 6.81-2.58 9.4.01 2.58 2.59 2.58 6.82-.01 9.4zM2060.65 426.66l-53.57 53.49c-2.59 2.58-6.81 2.58-9.4-.01-2.58-2.59-2.58-6.81.01-9.4l53.57-53.49c2.59-2.58 6.81-2.58 9.4.01 2.58 2.59 2.58 6.82-.01 9.4z"/>
        <circle fill="#272361" cx="79.78" cy="905.13" r="20"/>
        <circle fill="#272361" cx="654.07" cy="1166.1" r="6.5"/>
        <path fill="#272361" d="M2105.08 833.49l-33.62 33.57c-2.59 2.58-6.81 2.58-9.4-.01-2.58-2.59-2.58-6.81.01-9.4l33.62-33.57c2.59-2.58 6.81-2.58 9.4.01 2.58 2.59 2.57 6.82-.01 9.4zM2254.15 1052.82l-53.57 53.49c-2.59 2.58-6.81 2.58-9.4-.01-2.58-2.59-2.58-6.81.01-9.4l53.57-53.49c2.59-2.58 6.81-2.58 9.4.01 2.58 2.59 2.57 6.82-.01 9.4z"/>
        <circle fill="#272361" cx="1958.63" cy="1086.66" r="20"/>
        <circle fill="#272361" cx="2084.03" cy="1213.26" r="6.5"/>
        <path fill="#272361" d="M1215.39 1119.57l-103.45 103.28c-2.59 2.58-6.81 2.58-9.4-.01-2.58-2.59-2.58-6.81.01-9.4L1206 1110.16c2.59-2.58 6.81-2.58 9.4.01 2.58 2.59 2.58 6.81-.01 9.4z"/>
        <circle fill="#272361" cx="1365.55" cy="1193.18" r="20"/>
        <path fill="#272361" d="M1494.76 1222l-33.62 33.57c-2.59 2.58-6.81 2.58-9.4-.01-2.58-2.59-2.58-6.81.01-9.4l33.62-33.57c2.59-2.58 6.81-2.58 9.4.01 2.58 2.59 2.58 6.82-.01 9.4zM528.12 1082.42l-53.57 53.49c-2.59 2.58-6.81 2.58-9.4-.01-2.58-2.59-2.58-6.81.01-9.4l53.57-53.49c2.59-2.58 6.81-2.58 9.4.01 2.58 2.59 2.58 6.82-.01 9.4z"/>
        <circle fill="#272361" cx="988.63" cy="1093.87" r="20"/>
        <circle fill="#272361" cx="1940.47" cy="53.64" r="20"/>
        <circle fill="#272361" cx="449.25" cy="318.43" r="20"/>
        <circle fill="#272361" cx="714.44" cy="84.65" r="20"/>
        <circle fill="#272361" cx="616.75" cy="946.57" r="20"/>
        <circle fill="#272361" cx="739.24" cy="955.17" r="6.5"/>
        <circle fill="#272361" cx="1574.88" cy="169.85" r="6.5"/>
        <circle fill="#272361" cx="890.97" cy="52.29" r="6.5"/>
    </g>
</svg>
